solid OpenSCAD_Model
  facet normal 0 0 -1
    outer loop
      vertex -5.56231 17.119 12
      vertex 5.56231 17.119 12
      vertex -14.5623 10.5801 12
    endloop
  endfacet
  facet normal 0 0 -1
    outer loop
      vertex 8.92394 10.7872 12
      vertex 5.56231 17.119 12
      vertex 14.5623 10.5801 12
    endloop
  endfacet
  facet normal 0 0 -1
    outer loop
      vertex 13.8896 1.75466 12
      vertex 14.5623 10.5801 12
      vertex 18 0 12
    endloop
  endfacet
  facet normal 0 0 -1
    outer loop
      vertex 12.2683 -6.74455 12
      vertex 18 0 12
      vertex 14.5623 -10.5801 12
    endloop
  endfacet
  facet normal 0 0 -1
    outer loop
      vertex 4.32624 -13.3148 12
      vertex 14.5623 -10.5801 12
      vertex 5.56231 -17.119 12
    endloop
  endfacet
  facet normal 0 0 -1
    outer loop
      vertex -4.32624 -13.3148 12
      vertex 5.56231 -17.119 12
      vertex -5.56231 -17.119 12
    endloop
  endfacet
  facet normal 0 0 -1
    outer loop
      vertex -11.3262 -8.22899 12
      vertex -5.56231 -17.119 12
      vertex -14.5623 -10.5801 12
    endloop
  endfacet
  facet normal 0 0 -1
    outer loop
      vertex -14.5623 10.5801 12
      vertex -14.5623 -10.5801 12
      vertex -18 0 12
    endloop
  endfacet
  facet normal 0 0 -1
    outer loop
      vertex -5.96091 -12.6676 12
      vertex -5.56231 -17.119 12
      vertex -7.50157 -11.8206 12
    endloop
  endfacet
  facet normal 0 0 -1
    outer loop
      vertex -14 0 12
      vertex -13.8896 -1.75466 12
      vertex -14.5623 -10.5801 12
    endloop
  endfacet
  facet normal 0 0 -1
    outer loop
      vertex -13.8896 -1.75466 12
      vertex -13.5602 -3.48166 12
      vertex -14.5623 -10.5801 12
    endloop
  endfacet
  facet normal 0 0 -1
    outer loop
      vertex -8.92394 -10.7872 12
      vertex -5.56231 -17.119 12
      vertex -10.2056 -9.58366 12
    endloop
  endfacet
  facet normal 0 0 -1
    outer loop
      vertex -13.5602 -3.48166 12
      vertex -13.0169 -5.15374 12
      vertex -14.5623 -10.5801 12
    endloop
  endfacet
  facet normal 0 0 -1
    outer loop
      vertex -13.0169 -5.15374 12
      vertex -12.2683 -6.74455 12
      vertex -14.5623 -10.5801 12
    endloop
  endfacet
  facet normal 0 0 -1
    outer loop
      vertex -12.2683 -6.74455 12
      vertex -11.3262 -8.22899 12
      vertex -14.5623 -10.5801 12
    endloop
  endfacet
  facet normal 0 0 -1
    outer loop
      vertex -7.50157 -11.8206 12
      vertex -5.56231 -17.119 12
      vertex -8.92394 -10.7872 12
    endloop
  endfacet
  facet normal 0 0 -1
    outer loop
      vertex 4.32624 -13.3148 12
      vertex 5.56231 -17.119 12
      vertex 2.62334 -13.752 12
    endloop
  endfacet
  facet normal 0 0 -1
    outer loop
      vertex -2.62334 -13.752 12
      vertex 5.56231 -17.119 12
      vertex -4.32624 -13.3148 12
    endloop
  endfacet
  facet normal 0 0 -1
    outer loop
      vertex -5.96091 -12.6676 12
      vertex -4.32624 -13.3148 12
      vertex -5.56231 -17.119 12
    endloop
  endfacet
  facet normal 0 0 -1
    outer loop
      vertex -0.879067 -13.9724 12
      vertex 5.56231 -17.119 12
      vertex -2.62334 -13.752 12
    endloop
  endfacet
  facet normal 0 0 -1
    outer loop
      vertex 0.879067 -13.9724 12
      vertex 5.56231 -17.119 12
      vertex -0.879067 -13.9724 12
    endloop
  endfacet
  facet normal 0 0 -1
    outer loop
      vertex 2.62334 -13.752 12
      vertex 5.56231 -17.119 12
      vertex 0.879067 -13.9724 12
    endloop
  endfacet
  facet normal 0 0 -1
    outer loop
      vertex 5.96091 -12.6676 12
      vertex 14.5623 -10.5801 12
      vertex 4.32624 -13.3148 12
    endloop
  endfacet
  facet normal 0 0 -1
    outer loop
      vertex 12.2683 -6.74455 12
      vertex 14.5623 -10.5801 12
      vertex 11.3262 -8.22899 12
    endloop
  endfacet
  facet normal 0 0 -1
    outer loop
      vertex 7.50157 -11.8206 12
      vertex 14.5623 -10.5801 12
      vertex 5.96091 -12.6676 12
    endloop
  endfacet
  facet normal 0 0 -1
    outer loop
      vertex 8.92394 -10.7872 12
      vertex 14.5623 -10.5801 12
      vertex 7.50157 -11.8206 12
    endloop
  endfacet
  facet normal 0 0 -1
    outer loop
      vertex 10.2056 -9.58366 12
      vertex 14.5623 -10.5801 12
      vertex 8.92394 -10.7872 12
    endloop
  endfacet
  facet normal 0 0 -1
    outer loop
      vertex 11.3262 -8.22899 12
      vertex 14.5623 -10.5801 12
      vertex 10.2056 -9.58366 12
    endloop
  endfacet
  facet normal 0 0 -1
    outer loop
      vertex 13.0169 -5.15374 12
      vertex 18 0 12
      vertex 12.2683 -6.74455 12
    endloop
  endfacet
  facet normal 0 0 -1
    outer loop
      vertex 13.8896 1.75466 12
      vertex 18 0 12
      vertex 14 0 12
    endloop
  endfacet
  facet normal 0 0 -1
    outer loop
      vertex 13.5602 -3.48166 12
      vertex 18 0 12
      vertex 13.0169 -5.15374 12
    endloop
  endfacet
  facet normal 0 0 -1
    outer loop
      vertex 13.8896 -1.75466 12
      vertex 18 0 12
      vertex 13.5602 -3.48166 12
    endloop
  endfacet
  facet normal 0 0 -1
    outer loop
      vertex 14 0 12
      vertex 18 0 12
      vertex 13.8896 -1.75466 12
    endloop
  endfacet
  facet normal 0 0 -1
    outer loop
      vertex 13.5602 3.48166 12
      vertex 14.5623 10.5801 12
      vertex 13.8896 1.75466 12
    endloop
  endfacet
  facet normal 0 0 -1
    outer loop
      vertex 8.92394 10.7872 12
      vertex 14.5623 10.5801 12
      vertex 10.2056 9.58366 12
    endloop
  endfacet
  facet normal 0 0 -1
    outer loop
      vertex 13.0169 5.15374 12
      vertex 14.5623 10.5801 12
      vertex 13.5602 3.48166 12
    endloop
  endfacet
  facet normal 0 0 -1
    outer loop
      vertex 12.2683 6.74455 12
      vertex 14.5623 10.5801 12
      vertex 13.0169 5.15374 12
    endloop
  endfacet
  facet normal 0 0 -1
    outer loop
      vertex 11.3262 8.22899 12
      vertex 14.5623 10.5801 12
      vertex 12.2683 6.74455 12
    endloop
  endfacet
  facet normal 0 0 -1
    outer loop
      vertex 10.2056 9.58366 12
      vertex 14.5623 10.5801 12
      vertex 11.3262 8.22899 12
    endloop
  endfacet
  facet normal 0 0 -1
    outer loop
      vertex 7.50157 11.8206 12
      vertex 5.56231 17.119 12
      vertex 8.92394 10.7872 12
    endloop
  endfacet
  facet normal 0 0 -1
    outer loop
      vertex -5.96091 12.6676 12
      vertex -14.5623 10.5801 12
      vertex -4.32624 13.3148 12
    endloop
  endfacet
  facet normal 0 0 -1
    outer loop
      vertex 5.96091 12.6676 12
      vertex 5.56231 17.119 12
      vertex 7.50157 11.8206 12
    endloop
  endfacet
  facet normal 0 0 -1
    outer loop
      vertex 4.32624 13.3148 12
      vertex 5.56231 17.119 12
      vertex 5.96091 12.6676 12
    endloop
  endfacet
  facet normal 0 0 -1
    outer loop
      vertex 2.62334 13.752 12
      vertex 5.56231 17.119 12
      vertex 4.32624 13.3148 12
    endloop
  endfacet
  facet normal 0 0 -1
    outer loop
      vertex 0.879067 13.9724 12
      vertex 5.56231 17.119 12
      vertex 2.62334 13.752 12
    endloop
  endfacet
  facet normal 0 0 -1
    outer loop
      vertex -0.879067 13.9724 12
      vertex 5.56231 17.119 12
      vertex 0.879067 13.9724 12
    endloop
  endfacet
  facet normal 0 0 -1
    outer loop
      vertex -2.62334 13.752 12
      vertex 5.56231 17.119 12
      vertex -0.879067 13.9724 12
    endloop
  endfacet
  facet normal 0 0 -1
    outer loop
      vertex -4.32624 13.3148 12
      vertex 5.56231 17.119 12
      vertex -2.62334 13.752 12
    endloop
  endfacet
  facet normal 0 0 -1
    outer loop
      vertex -14.5623 10.5801 12
      vertex 5.56231 17.119 12
      vertex -4.32624 13.3148 12
    endloop
  endfacet
  facet normal 0 0 -1
    outer loop
      vertex -7.50157 11.8206 12
      vertex -14.5623 10.5801 12
      vertex -5.96091 12.6676 12
    endloop
  endfacet
  facet normal 0 0 -1
    outer loop
      vertex -8.92394 10.7872 12
      vertex -14.5623 10.5801 12
      vertex -7.50157 11.8206 12
    endloop
  endfacet
  facet normal 0 0 -1
    outer loop
      vertex -10.2056 9.58366 12
      vertex -14.5623 10.5801 12
      vertex -8.92394 10.7872 12
    endloop
  endfacet
  facet normal 0 0 -1
    outer loop
      vertex -11.3262 8.22899 12
      vertex -14.5623 10.5801 12
      vertex -10.2056 9.58366 12
    endloop
  endfacet
  facet normal 0 0 -1
    outer loop
      vertex -12.2683 6.74455 12
      vertex -14.5623 10.5801 12
      vertex -11.3262 8.22899 12
    endloop
  endfacet
  facet normal 0 0 -1
    outer loop
      vertex -13.0169 5.15374 12
      vertex -14.5623 10.5801 12
      vertex -12.2683 6.74455 12
    endloop
  endfacet
  facet normal 0 0 -1
    outer loop
      vertex -13.5602 3.48166 12
      vertex -14.5623 10.5801 12
      vertex -13.0169 5.15374 12
    endloop
  endfacet
  facet normal 0 0 -1
    outer loop
      vertex -14 0 12
      vertex -14.5623 10.5801 12
      vertex -13.8896 1.75466 12
    endloop
  endfacet
  facet normal 0 0 -1
    outer loop
      vertex -14.5623 10.5801 12
      vertex -13.5602 3.48166 12
      vertex -13.8896 1.75466 12
    endloop
  endfacet
  facet normal 0 0 -1
    outer loop
      vertex -14.5623 10.5801 12
      vertex -14 0 12
      vertex -14.5623 -10.5801 12
    endloop
  endfacet
  facet normal 0 0 -1
    outer loop
      vertex -10.2056 -9.58366 12
      vertex -5.56231 -17.119 12
      vertex -11.3262 -8.22899 12
    endloop
  endfacet
  facet normal -0.951057 0.309017 0
    outer loop
      vertex -18 0 12
      vertex -18 0 24
      vertex -14.5623 10.5801 12
    endloop
  endfacet
  facet normal -0.951057 0.309017 0
    outer loop
      vertex -14.5623 10.5801 12
      vertex -18 0 24
      vertex -14.5623 10.5801 24
    endloop
  endfacet
  facet normal -0.951057 -0.309017 0
    outer loop
      vertex -18 0 12
      vertex -14.5623 -10.5801 12
      vertex -18 0 24
    endloop
  endfacet
  facet normal -0.951057 -0.309017 0
    outer loop
      vertex -18 0 24
      vertex -14.5623 -10.5801 12
      vertex -14.5623 -10.5801 24
    endloop
  endfacet
  facet normal -0.587785 0.809017 0
    outer loop
      vertex -14.5623 10.5801 12
      vertex -14.5623 10.5801 24
      vertex -5.56231 17.119 12
    endloop
  endfacet
  facet normal -0.587785 0.809017 0
    outer loop
      vertex -5.56231 17.119 12
      vertex -14.5623 10.5801 24
      vertex -5.56231 17.119 24
    endloop
  endfacet
  facet normal -0.587785 -0.809017 0
    outer loop
      vertex -14.5623 -10.5801 24
      vertex -14.5623 -10.5801 12
      vertex -5.56231 -17.119 12
    endloop
  endfacet
  facet normal -0.587785 -0.809017 0
    outer loop
      vertex -5.56231 -17.119 24
      vertex -14.5623 -10.5801 24
      vertex -5.56231 -17.119 12
    endloop
  endfacet
  facet normal 0 -1 0
    outer loop
      vertex -5.56231 -17.119 24
      vertex -5.56231 -17.119 12
      vertex 5.56231 -17.119 12
    endloop
  endfacet
  facet normal 0 -1 0
    outer loop
      vertex 5.56231 -17.119 24
      vertex -5.56231 -17.119 24
      vertex 5.56231 -17.119 12
    endloop
  endfacet
  facet normal 0.587785 -0.809017 0
    outer loop
      vertex 5.56231 -17.119 24
      vertex 5.56231 -17.119 12
      vertex 14.5623 -10.5801 12
    endloop
  endfacet
  facet normal 0.587785 -0.809017 0
    outer loop
      vertex 14.5623 -10.5801 24
      vertex 5.56231 -17.119 24
      vertex 14.5623 -10.5801 12
    endloop
  endfacet
  facet normal 0.951057 -0.309017 0
    outer loop
      vertex 14.5623 -10.5801 24
      vertex 14.5623 -10.5801 12
      vertex 18 0 12
    endloop
  endfacet
  facet normal 0.951057 -0.309017 0
    outer loop
      vertex 18 0 24
      vertex 14.5623 -10.5801 24
      vertex 18 0 12
    endloop
  endfacet
  facet normal 0.951057 0.309017 0
    outer loop
      vertex 18 0 12
      vertex 14.5623 10.5801 12
      vertex 14.5623 10.5801 24
    endloop
  endfacet
  facet normal 0.951057 0.309017 0
    outer loop
      vertex 18 0 24
      vertex 18 0 12
      vertex 14.5623 10.5801 24
    endloop
  endfacet
  facet normal 0.587785 0.809017 0
    outer loop
      vertex 5.56231 17.119 12
      vertex 5.56231 17.119 24
      vertex 14.5623 10.5801 12
    endloop
  endfacet
  facet normal 0.587785 0.809017 0
    outer loop
      vertex 14.5623 10.5801 12
      vertex 5.56231 17.119 24
      vertex 14.5623 10.5801 24
    endloop
  endfacet
  facet normal 0 1 0
    outer loop
      vertex 2 17.119 20
      vertex 5.56231 17.119 12
      vertex -2 17.119 20
    endloop
  endfacet
  facet normal 0 1 0
    outer loop
      vertex -5.56231 17.119 12
      vertex -5.56231 17.119 24
      vertex -2 17.119 20
    endloop
  endfacet
  facet normal 0 1 0
    outer loop
      vertex -5.56231 17.119 12
      vertex -2 17.119 20
      vertex 5.56231 17.119 12
    endloop
  endfacet
  facet normal 0 1 0
    outer loop
      vertex 5.56231 17.119 12
      vertex 2 17.119 20
      vertex 2 17.119 24
    endloop
  endfacet
  facet normal 0 1 0
    outer loop
      vertex 5.56231 17.119 12
      vertex 2 17.119 24
      vertex 5.56231 17.119 24
    endloop
  endfacet
  facet normal 0 1 0
    outer loop
      vertex -2 17.119 20
      vertex -5.56231 17.119 24
      vertex -2 17.119 24
    endloop
  endfacet
  facet normal -0.982287 -0.187382 0
    outer loop
      vertex -13.8896 -1.75466 0
      vertex -13.5602 -3.48166 0
      vertex -13.8896 -1.75466 12
    endloop
  endfacet
  facet normal -0.982287 -0.187382 0
    outer loop
      vertex -13.8896 -1.75466 12
      vertex -13.5602 -3.48166 0
      vertex -13.5602 -3.48166 12
    endloop
  endfacet
  facet normal -0.998027 -0.0627904 0
    outer loop
      vertex -14 0 0
      vertex -13.8896 -1.75466 0
      vertex -14 0 12
    endloop
  endfacet
  facet normal -0.998027 -0.0627904 0
    outer loop
      vertex -14 0 12
      vertex -13.8896 -1.75466 0
      vertex -13.8896 -1.75466 12
    endloop
  endfacet
  facet normal -0.998027 0.0627904 0
    outer loop
      vertex -14 0 0
      vertex -14 0 12
      vertex -13.8896 1.75466 0
    endloop
  endfacet
  facet normal -0.998027 0.0627904 0
    outer loop
      vertex -13.8896 1.75466 0
      vertex -14 0 12
      vertex -13.8896 1.75466 12
    endloop
  endfacet
  facet normal -0.982287 0.187382 0
    outer loop
      vertex -13.8896 1.75466 0
      vertex -13.8896 1.75466 12
      vertex -13.5602 3.48166 0
    endloop
  endfacet
  facet normal -0.982287 0.187382 0
    outer loop
      vertex -13.5602 3.48166 0
      vertex -13.8896 1.75466 12
      vertex -13.5602 3.48166 12
    endloop
  endfacet
  facet normal -0.951057 0.309017 0
    outer loop
      vertex -13.5602 3.48166 0
      vertex -13.5602 3.48166 12
      vertex -13.0169 5.15374 0
    endloop
  endfacet
  facet normal -0.951057 0.309017 0
    outer loop
      vertex -13.0169 5.15374 0
      vertex -13.5602 3.48166 12
      vertex -13.0169 5.15374 12
    endloop
  endfacet
  facet normal -0.904827 0.425779 0
    outer loop
      vertex -13.0169 5.15374 0
      vertex -13.0169 5.15374 12
      vertex -12.2683 6.74455 0
    endloop
  endfacet
  facet normal -0.904827 0.425779 0
    outer loop
      vertex -12.2683 6.74455 0
      vertex -13.0169 5.15374 12
      vertex -12.2683 6.74455 12
    endloop
  endfacet
  facet normal -0.844328 0.535827 0
    outer loop
      vertex -12.2683 6.74455 0
      vertex -12.2683 6.74455 12
      vertex -11.3262 8.22899 0
    endloop
  endfacet
  facet normal -0.844328 0.535827 0
    outer loop
      vertex -11.3262 8.22899 0
      vertex -12.2683 6.74455 12
      vertex -11.3262 8.22899 12
    endloop
  endfacet
  facet normal -0.770513 0.637424 0
    outer loop
      vertex -11.3262 8.22899 0
      vertex -11.3262 8.22899 12
      vertex -10.2056 9.58366 0
    endloop
  endfacet
  facet normal -0.770513 0.637424 0
    outer loop
      vertex -10.2056 9.58366 0
      vertex -11.3262 8.22899 12
      vertex -10.2056 9.58366 12
    endloop
  endfacet
  facet normal -0.684547 0.728969 0
    outer loop
      vertex -10.2056 9.58366 0
      vertex -10.2056 9.58366 12
      vertex -8.92394 10.7872 0
    endloop
  endfacet
  facet normal -0.684547 0.728969 0
    outer loop
      vertex -8.92394 10.7872 0
      vertex -10.2056 9.58366 12
      vertex -8.92394 10.7872 12
    endloop
  endfacet
  facet normal -0.587785 0.809017 0
    outer loop
      vertex -8.92394 10.7872 0
      vertex -8.92394 10.7872 12
      vertex -7.50157 11.8206 0
    endloop
  endfacet
  facet normal -0.587785 0.809017 0
    outer loop
      vertex -7.50157 11.8206 0
      vertex -8.92394 10.7872 12
      vertex -7.50157 11.8206 12
    endloop
  endfacet
  facet normal -0.481754 0.876307 0
    outer loop
      vertex -7.50157 11.8206 0
      vertex -7.50157 11.8206 12
      vertex -5.96091 12.6676 0
    endloop
  endfacet
  facet normal -0.481754 0.876307 0
    outer loop
      vertex -5.96091 12.6676 0
      vertex -7.50157 11.8206 12
      vertex -5.96091 12.6676 12
    endloop
  endfacet
  facet normal -0.368124 0.929777 0
    outer loop
      vertex -5.96091 12.6676 0
      vertex -5.96091 12.6676 12
      vertex -4.32624 13.3148 0
    endloop
  endfacet
  facet normal -0.368124 0.929777 0
    outer loop
      vertex -4.32624 13.3148 0
      vertex -5.96091 12.6676 12
      vertex -4.32624 13.3148 12
    endloop
  endfacet
  facet normal -0.24869 0.968583 0
    outer loop
      vertex -4.32624 13.3148 0
      vertex -4.32624 13.3148 12
      vertex -2.62334 13.752 0
    endloop
  endfacet
  facet normal -0.24869 0.968583 0
    outer loop
      vertex -2.62334 13.752 0
      vertex -4.32624 13.3148 12
      vertex -2.62334 13.752 12
    endloop
  endfacet
  facet normal -0.125333 0.992115 0
    outer loop
      vertex -2.62334 13.752 0
      vertex -2.62334 13.752 12
      vertex -0.879067 13.9724 0
    endloop
  endfacet
  facet normal -0.125333 0.992115 0
    outer loop
      vertex -0.879067 13.9724 0
      vertex -2.62334 13.752 12
      vertex -0.879067 13.9724 12
    endloop
  endfacet
  facet normal 0 1 0
    outer loop
      vertex -0.879067 13.9724 0
      vertex -0.879067 13.9724 12
      vertex 0.879067 13.9724 0
    endloop
  endfacet
  facet normal 0 1 0
    outer loop
      vertex 0.879067 13.9724 0
      vertex -0.879067 13.9724 12
      vertex 0.879067 13.9724 12
    endloop
  endfacet
  facet normal 0.125333 0.992115 0
    outer loop
      vertex 0.879067 13.9724 0
      vertex 0.879067 13.9724 12
      vertex 2.62334 13.752 0
    endloop
  endfacet
  facet normal 0.125333 0.992115 0
    outer loop
      vertex 2.62334 13.752 0
      vertex 0.879067 13.9724 12
      vertex 2.62334 13.752 12
    endloop
  endfacet
  facet normal 0.24869 0.968583 0
    outer loop
      vertex 2.62334 13.752 0
      vertex 2.62334 13.752 12
      vertex 4.32624 13.3148 0
    endloop
  endfacet
  facet normal 0.24869 0.968583 0
    outer loop
      vertex 4.32624 13.3148 0
      vertex 2.62334 13.752 12
      vertex 4.32624 13.3148 12
    endloop
  endfacet
  facet normal 0.368124 0.929777 0
    outer loop
      vertex 4.32624 13.3148 0
      vertex 4.32624 13.3148 12
      vertex 5.96091 12.6676 0
    endloop
  endfacet
  facet normal 0.368124 0.929777 0
    outer loop
      vertex 5.96091 12.6676 0
      vertex 4.32624 13.3148 12
      vertex 5.96091 12.6676 12
    endloop
  endfacet
  facet normal 0.481754 0.876307 0
    outer loop
      vertex 5.96091 12.6676 0
      vertex 5.96091 12.6676 12
      vertex 7.50157 11.8206 0
    endloop
  endfacet
  facet normal 0.481754 0.876307 0
    outer loop
      vertex 7.50157 11.8206 0
      vertex 5.96091 12.6676 12
      vertex 7.50157 11.8206 12
    endloop
  endfacet
  facet normal 0.587785 0.809017 0
    outer loop
      vertex 7.50157 11.8206 0
      vertex 7.50157 11.8206 12
      vertex 8.92394 10.7872 0
    endloop
  endfacet
  facet normal 0.587785 0.809017 0
    outer loop
      vertex 8.92394 10.7872 0
      vertex 7.50157 11.8206 12
      vertex 8.92394 10.7872 12
    endloop
  endfacet
  facet normal 0.684547 0.728969 0
    outer loop
      vertex 8.92394 10.7872 0
      vertex 8.92394 10.7872 12
      vertex 10.2056 9.58366 0
    endloop
  endfacet
  facet normal 0.684547 0.728969 0
    outer loop
      vertex 10.2056 9.58366 0
      vertex 8.92394 10.7872 12
      vertex 10.2056 9.58366 12
    endloop
  endfacet
  facet normal 0.770513 0.637424 0
    outer loop
      vertex 11.3262 8.22899 0
      vertex 10.2056 9.58366 0
      vertex 10.2056 9.58366 12
    endloop
  endfacet
  facet normal 0.770513 0.637424 0
    outer loop
      vertex 11.3262 8.22899 12
      vertex 11.3262 8.22899 0
      vertex 10.2056 9.58366 12
    endloop
  endfacet
  facet normal 0.844328 0.535827 0
    outer loop
      vertex 12.2683 6.74455 0
      vertex 11.3262 8.22899 0
      vertex 11.3262 8.22899 12
    endloop
  endfacet
  facet normal 0.844328 0.535827 0
    outer loop
      vertex 12.2683 6.74455 12
      vertex 12.2683 6.74455 0
      vertex 11.3262 8.22899 12
    endloop
  endfacet
  facet normal 0.904827 0.425779 0
    outer loop
      vertex 13.0169 5.15374 0
      vertex 12.2683 6.74455 0
      vertex 12.2683 6.74455 12
    endloop
  endfacet
  facet normal 0.904827 0.425779 0
    outer loop
      vertex 13.0169 5.15374 12
      vertex 13.0169 5.15374 0
      vertex 12.2683 6.74455 12
    endloop
  endfacet
  facet normal 0.951057 0.309017 0
    outer loop
      vertex 13.5602 3.48166 0
      vertex 13.0169 5.15374 0
      vertex 13.0169 5.15374 12
    endloop
  endfacet
  facet normal 0.951057 0.309017 0
    outer loop
      vertex 13.5602 3.48166 12
      vertex 13.5602 3.48166 0
      vertex 13.0169 5.15374 12
    endloop
  endfacet
  facet normal 0.982287 0.187382 0
    outer loop
      vertex 13.8896 1.75466 0
      vertex 13.5602 3.48166 0
      vertex 13.5602 3.48166 12
    endloop
  endfacet
  facet normal 0.982287 0.187382 0
    outer loop
      vertex 13.8896 1.75466 12
      vertex 13.8896 1.75466 0
      vertex 13.5602 3.48166 12
    endloop
  endfacet
  facet normal 0.998027 0.0627904 0
    outer loop
      vertex 14 0 0
      vertex 13.8896 1.75466 0
      vertex 13.8896 1.75466 12
    endloop
  endfacet
  facet normal 0.998027 0.0627904 0
    outer loop
      vertex 14 0 12
      vertex 14 0 0
      vertex 13.8896 1.75466 12
    endloop
  endfacet
  facet normal 0.998027 -0.0627904 0
    outer loop
      vertex 13.8896 -1.75466 12
      vertex 13.8896 -1.75466 0
      vertex 14 0 0
    endloop
  endfacet
  facet normal 0.998027 -0.0627904 0
    outer loop
      vertex 14 0 12
      vertex 13.8896 -1.75466 12
      vertex 14 0 0
    endloop
  endfacet
  facet normal 0.982287 -0.187382 0
    outer loop
      vertex 13.5602 -3.48166 12
      vertex 13.5602 -3.48166 0
      vertex 13.8896 -1.75466 0
    endloop
  endfacet
  facet normal 0.982287 -0.187382 0
    outer loop
      vertex 13.8896 -1.75466 12
      vertex 13.5602 -3.48166 12
      vertex 13.8896 -1.75466 0
    endloop
  endfacet
  facet normal 0.951057 -0.309017 0
    outer loop
      vertex 13.0169 -5.15374 12
      vertex 13.0169 -5.15374 0
      vertex 13.5602 -3.48166 0
    endloop
  endfacet
  facet normal 0.951057 -0.309017 0
    outer loop
      vertex 13.5602 -3.48166 12
      vertex 13.0169 -5.15374 12
      vertex 13.5602 -3.48166 0
    endloop
  endfacet
  facet normal 0.904827 -0.425779 0
    outer loop
      vertex 12.2683 -6.74455 12
      vertex 12.2683 -6.74455 0
      vertex 13.0169 -5.15374 0
    endloop
  endfacet
  facet normal 0.904827 -0.425779 0
    outer loop
      vertex 13.0169 -5.15374 12
      vertex 12.2683 -6.74455 12
      vertex 13.0169 -5.15374 0
    endloop
  endfacet
  facet normal 0.844328 -0.535827 0
    outer loop
      vertex 11.3262 -8.22899 12
      vertex 11.3262 -8.22899 0
      vertex 12.2683 -6.74455 0
    endloop
  endfacet
  facet normal 0.844328 -0.535827 0
    outer loop
      vertex 12.2683 -6.74455 12
      vertex 11.3262 -8.22899 12
      vertex 12.2683 -6.74455 0
    endloop
  endfacet
  facet normal 0.770513 -0.637424 0
    outer loop
      vertex 10.2056 -9.58366 12
      vertex 10.2056 -9.58366 0
      vertex 11.3262 -8.22899 0
    endloop
  endfacet
  facet normal 0.770513 -0.637424 0
    outer loop
      vertex 11.3262 -8.22899 12
      vertex 10.2056 -9.58366 12
      vertex 11.3262 -8.22899 0
    endloop
  endfacet
  facet normal 0.684547 -0.728969 0
    outer loop
      vertex 8.92394 -10.7872 12
      vertex 8.92394 -10.7872 0
      vertex 10.2056 -9.58366 0
    endloop
  endfacet
  facet normal 0.684547 -0.728969 0
    outer loop
      vertex 10.2056 -9.58366 12
      vertex 8.92394 -10.7872 12
      vertex 10.2056 -9.58366 0
    endloop
  endfacet
  facet normal 0.587785 -0.809017 0
    outer loop
      vertex 7.50157 -11.8206 12
      vertex 7.50157 -11.8206 0
      vertex 8.92394 -10.7872 0
    endloop
  endfacet
  facet normal 0.587785 -0.809017 0
    outer loop
      vertex 8.92394 -10.7872 12
      vertex 7.50157 -11.8206 12
      vertex 8.92394 -10.7872 0
    endloop
  endfacet
  facet normal 0.481754 -0.876307 0
    outer loop
      vertex 5.96091 -12.6676 12
      vertex 5.96091 -12.6676 0
      vertex 7.50157 -11.8206 0
    endloop
  endfacet
  facet normal 0.481754 -0.876307 0
    outer loop
      vertex 7.50157 -11.8206 12
      vertex 5.96091 -12.6676 12
      vertex 7.50157 -11.8206 0
    endloop
  endfacet
  facet normal 0.368124 -0.929777 0
    outer loop
      vertex 4.32624 -13.3148 12
      vertex 4.32624 -13.3148 0
      vertex 5.96091 -12.6676 0
    endloop
  endfacet
  facet normal 0.368124 -0.929777 0
    outer loop
      vertex 5.96091 -12.6676 12
      vertex 4.32624 -13.3148 12
      vertex 5.96091 -12.6676 0
    endloop
  endfacet
  facet normal 0.24869 -0.968583 0
    outer loop
      vertex 2.62334 -13.752 12
      vertex 2.62334 -13.752 0
      vertex 4.32624 -13.3148 0
    endloop
  endfacet
  facet normal 0.24869 -0.968583 0
    outer loop
      vertex 4.32624 -13.3148 12
      vertex 2.62334 -13.752 12
      vertex 4.32624 -13.3148 0
    endloop
  endfacet
  facet normal 0.125333 -0.992115 0
    outer loop
      vertex 0.879067 -13.9724 12
      vertex 0.879067 -13.9724 0
      vertex 2.62334 -13.752 0
    endloop
  endfacet
  facet normal 0.125333 -0.992115 0
    outer loop
      vertex 2.62334 -13.752 12
      vertex 0.879067 -13.9724 12
      vertex 2.62334 -13.752 0
    endloop
  endfacet
  facet normal 0 -1 0
    outer loop
      vertex -0.879067 -13.9724 12
      vertex -0.879067 -13.9724 0
      vertex 0.879067 -13.9724 0
    endloop
  endfacet
  facet normal 0 -1 0
    outer loop
      vertex 0.879067 -13.9724 12
      vertex -0.879067 -13.9724 12
      vertex 0.879067 -13.9724 0
    endloop
  endfacet
  facet normal -0.125333 -0.992115 0
    outer loop
      vertex -2.62334 -13.752 12
      vertex -2.62334 -13.752 0
      vertex -0.879067 -13.9724 0
    endloop
  endfacet
  facet normal -0.125333 -0.992115 0
    outer loop
      vertex -0.879067 -13.9724 12
      vertex -2.62334 -13.752 12
      vertex -0.879067 -13.9724 0
    endloop
  endfacet
  facet normal -0.24869 -0.968583 0
    outer loop
      vertex -4.32624 -13.3148 12
      vertex -4.32624 -13.3148 0
      vertex -2.62334 -13.752 0
    endloop
  endfacet
  facet normal -0.24869 -0.968583 0
    outer loop
      vertex -2.62334 -13.752 12
      vertex -4.32624 -13.3148 12
      vertex -2.62334 -13.752 0
    endloop
  endfacet
  facet normal -0.368124 -0.929777 0
    outer loop
      vertex -5.96091 -12.6676 12
      vertex -5.96091 -12.6676 0
      vertex -4.32624 -13.3148 0
    endloop
  endfacet
  facet normal -0.368124 -0.929777 0
    outer loop
      vertex -4.32624 -13.3148 12
      vertex -5.96091 -12.6676 12
      vertex -4.32624 -13.3148 0
    endloop
  endfacet
  facet normal -0.481754 -0.876307 0
    outer loop
      vertex -7.50157 -11.8206 12
      vertex -7.50157 -11.8206 0
      vertex -5.96091 -12.6676 0
    endloop
  endfacet
  facet normal -0.481754 -0.876307 0
    outer loop
      vertex -5.96091 -12.6676 12
      vertex -7.50157 -11.8206 12
      vertex -5.96091 -12.6676 0
    endloop
  endfacet
  facet normal -0.587785 -0.809017 0
    outer loop
      vertex -8.92394 -10.7872 12
      vertex -8.92394 -10.7872 0
      vertex -7.50157 -11.8206 0
    endloop
  endfacet
  facet normal -0.587785 -0.809017 0
    outer loop
      vertex -7.50157 -11.8206 12
      vertex -8.92394 -10.7872 12
      vertex -7.50157 -11.8206 0
    endloop
  endfacet
  facet normal -0.684547 -0.728969 0
    outer loop
      vertex -10.2056 -9.58366 12
      vertex -10.2056 -9.58366 0
      vertex -8.92394 -10.7872 0
    endloop
  endfacet
  facet normal -0.684547 -0.728969 0
    outer loop
      vertex -8.92394 -10.7872 12
      vertex -10.2056 -9.58366 12
      vertex -8.92394 -10.7872 0
    endloop
  endfacet
  facet normal -0.770513 -0.637424 0
    outer loop
      vertex -11.3262 -8.22899 0
      vertex -10.2056 -9.58366 0
      vertex -11.3262 -8.22899 12
    endloop
  endfacet
  facet normal -0.770513 -0.637424 0
    outer loop
      vertex -11.3262 -8.22899 12
      vertex -10.2056 -9.58366 0
      vertex -10.2056 -9.58366 12
    endloop
  endfacet
  facet normal -0.844328 -0.535827 0
    outer loop
      vertex -12.2683 -6.74455 0
      vertex -11.3262 -8.22899 0
      vertex -12.2683 -6.74455 12
    endloop
  endfacet
  facet normal -0.844328 -0.535827 0
    outer loop
      vertex -12.2683 -6.74455 12
      vertex -11.3262 -8.22899 0
      vertex -11.3262 -8.22899 12
    endloop
  endfacet
  facet normal -0.904827 -0.425779 0
    outer loop
      vertex -13.0169 -5.15374 0
      vertex -12.2683 -6.74455 0
      vertex -13.0169 -5.15374 12
    endloop
  endfacet
  facet normal -0.904827 -0.425779 0
    outer loop
      vertex -13.0169 -5.15374 12
      vertex -12.2683 -6.74455 0
      vertex -12.2683 -6.74455 12
    endloop
  endfacet
  facet normal -0.951057 -0.309017 0
    outer loop
      vertex -13.5602 -3.48166 0
      vertex -13.0169 -5.15374 0
      vertex -13.5602 -3.48166 12
    endloop
  endfacet
  facet normal -0.951057 -0.309017 0
    outer loop
      vertex -13.5602 -3.48166 12
      vertex -13.0169 -5.15374 0
      vertex -13.0169 -5.15374 12
    endloop
  endfacet
  facet normal 0 0 1
    outer loop
      vertex -14.5623 10.5801 24
      vertex -18 0 24
      vertex -14.5623 -10.5801 24
    endloop
  endfacet
  facet normal 0 0 1
    outer loop
      vertex 5.56231 -17.119 24
      vertex -14.5623 10.5801 24
      vertex -5.56231 -17.119 24
    endloop
  endfacet
  facet normal 0 0 1
    outer loop
      vertex -5.56231 -17.119 24
      vertex -14.5623 10.5801 24
      vertex -14.5623 -10.5801 24
    endloop
  endfacet
  facet normal 0 0 1
    outer loop
      vertex -2 0 24
      vertex -14.5623 10.5801 24
      vertex 5.56231 -17.119 24
    endloop
  endfacet
  facet normal 0 0 1
    outer loop
      vertex 2 0 24
      vertex -2 0 24
      vertex 14.5623 -10.5801 24
    endloop
  endfacet
  facet normal 0 0 1
    outer loop
      vertex -2 0 24
      vertex -2 17.119 24
      vertex -14.5623 10.5801 24
    endloop
  endfacet
  facet normal 0 0 1
    outer loop
      vertex 18 0 24
      vertex 2 0 24
      vertex 14.5623 -10.5801 24
    endloop
  endfacet
  facet normal 0 0 1
    outer loop
      vertex 14.5623 -10.5801 24
      vertex -2 0 24
      vertex 5.56231 -17.119 24
    endloop
  endfacet
  facet normal 0 0 1
    outer loop
      vertex -5.56231 17.119 24
      vertex -14.5623 10.5801 24
      vertex -2 17.119 24
    endloop
  endfacet
  facet normal 0 0 1
    outer loop
      vertex 2 17.119 24
      vertex 14.5623 10.5801 24
      vertex 5.56231 17.119 24
    endloop
  endfacet
  facet normal 0 0 1
    outer loop
      vertex 2 17.119 24
      vertex 18 0 24
      vertex 14.5623 10.5801 24
    endloop
  endfacet
  facet normal 0 0 1
    outer loop
      vertex 2 17.119 24
      vertex 2 0 24
      vertex 18 0 24
    endloop
  endfacet
  facet normal -1 0 0
    outer loop
      vertex 2 17.119 24
      vertex 2 17.119 20
      vertex 2 0 24
    endloop
  endfacet
  facet normal -1 0 0
    outer loop
      vertex 2 0 24
      vertex 2 17.119 20
      vertex 2 0 20
    endloop
  endfacet
  facet normal 0 0 1
    outer loop
      vertex 2 0 20
      vertex 2 17.119 20
      vertex -2 17.119 20
    endloop
  endfacet
  facet normal 0 0 1
    outer loop
      vertex -2 0 20
      vertex 2 0 20
      vertex -2 17.119 20
    endloop
  endfacet
  facet normal 1 0 0
    outer loop
      vertex -2 17.119 20
      vertex -2 17.119 24
      vertex -2 0 24
    endloop
  endfacet
  facet normal 1 0 0
    outer loop
      vertex -2 0 20
      vertex -2 17.119 20
      vertex -2 0 24
    endloop
  endfacet
  facet normal 0 0 -1
    outer loop
      vertex -14 0 0
      vertex -13.8896 1.75466 0
      vertex -13.8896 -1.75466 0
    endloop
  endfacet
  facet normal 0 0 -1
    outer loop
      vertex -13.8896 -1.75466 0
      vertex -13.8896 1.75466 0
      vertex -13.5602 3.48166 0
    endloop
  endfacet
  facet normal 0 0 -1
    outer loop
      vertex -13.8896 -1.75466 0
      vertex -13.5602 3.48166 0
      vertex -13.0169 5.15374 0
    endloop
  endfacet
  facet normal 0 0 -1
    outer loop
      vertex -13.8896 -1.75466 0
      vertex -13.0169 5.15374 0
      vertex -12.2683 6.74455 0
    endloop
  endfacet
  facet normal 0 0 -1
    outer loop
      vertex -13.8896 -1.75466 0
      vertex -12.2683 6.74455 0
      vertex -11.3262 8.22899 0
    endloop
  endfacet
  facet normal 0 0 -1
    outer loop
      vertex -13.8896 -1.75466 0
      vertex -11.3262 8.22899 0
      vertex -10.2056 9.58366 0
    endloop
  endfacet
  facet normal 0 0 -1
    outer loop
      vertex -13.8896 -1.75466 0
      vertex -10.2056 9.58366 0
      vertex -8.92394 10.7872 0
    endloop
  endfacet
  facet normal 0 0 -1
    outer loop
      vertex -10.5157 5.78104 0
      vertex -8.92394 10.7872 0
      vertex -7.50157 11.8206 0
    endloop
  endfacet
  facet normal 0 0 -1
    outer loop
      vertex -8.74762 8.21457 0
      vertex -7.50157 11.8206 0
      vertex -5.96091 12.6676 0
    endloop
  endfacet
  facet normal 0 0 -1
    outer loop
      vertex -6.42992 10.1319 0
      vertex -5.96091 12.6676 0
      vertex -4.32624 13.3148 0
    endloop
  endfacet
  facet normal 0 0 -1
    outer loop
      vertex -5.10935 10.8579 0
      vertex -4.32624 13.3148 0
      vertex -2.62334 13.752 0
    endloop
  endfacet
  facet normal 0 0 -1
    outer loop
      vertex -3.7082 11.4127 0
      vertex -2.62334 13.752 0
      vertex -0.879067 13.9724 0
    endloop
  endfacet
  facet normal 0 0 -1
    outer loop
      vertex -2.24858 11.7874 0
      vertex -0.879067 13.9724 0
      vertex 0.879067 13.9724 0
    endloop
  endfacet
  facet normal 0 0 -1
    outer loop
      vertex -0.753486 11.9763 0
      vertex 0.879067 13.9724 0
      vertex 2.62334 13.752 0
    endloop
  endfacet
  facet normal 0 0 -1
    outer loop
      vertex 2.24858 11.7874 0
      vertex 2.62334 13.752 0
      vertex 4.32624 13.3148 0
    endloop
  endfacet
  facet normal 0 0 -1
    outer loop
      vertex 3.7082 11.4127 0
      vertex 4.32624 13.3148 0
      vertex 5.96091 12.6676 0
    endloop
  endfacet
  facet normal 0 0 -1
    outer loop
      vertex 5.10935 10.8579 0
      vertex 5.96091 12.6676 0
      vertex 7.50157 11.8206 0
    endloop
  endfacet
  facet normal 0 0 -1
    outer loop
      vertex 6.42992 10.1319 0
      vertex 7.50157 11.8206 0
      vertex 8.92394 10.7872 0
    endloop
  endfacet
  facet normal 0 0 -1
    outer loop
      vertex 7.64909 9.24616 0
      vertex 8.92394 10.7872 0
      vertex 10.2056 9.58366 0
    endloop
  endfacet
  facet normal 0 0 -1
    outer loop
      vertex 8.74762 8.21457 0
      vertex 10.2056 9.58366 0
      vertex 11.3262 8.22899 0
    endloop
  endfacet
  facet normal 0 0 -1
    outer loop
      vertex 9.7082 7.05342 0
      vertex 11.3262 8.22899 0
      vertex 12.2683 6.74455 0
    endloop
  endfacet
  facet normal 0 0 -1
    outer loop
      vertex 10.5157 5.78104 0
      vertex 12.2683 6.74455 0
      vertex 13.0169 5.15374 0
    endloop
  endfacet
  facet normal 0 0 -1
    outer loop
      vertex 11.1573 4.41749 0
      vertex 13.0169 5.15374 0
      vertex 13.5602 3.48166 0
    endloop
  endfacet
  facet normal 0 0 -1
    outer loop
      vertex 11.9054 1.504 0
      vertex 13.5602 3.48166 0
      vertex 13.8896 1.75466 0
    endloop
  endfacet
  facet normal 0 0 -1
    outer loop
      vertex 12 0 0
      vertex 13.8896 1.75466 0
      vertex 14 0 0
    endloop
  endfacet
  facet normal 0 0 -1
    outer loop
      vertex 11.9054 -1.504 0
      vertex 14 0 0
      vertex 13.8896 -1.75466 0
    endloop
  endfacet
  facet normal 0 0 -1
    outer loop
      vertex 11.623 -2.98428 0
      vertex 13.8896 -1.75466 0
      vertex 13.5602 -3.48166 0
    endloop
  endfacet
  facet normal 0 0 -1
    outer loop
      vertex 11.1573 -4.41749 0
      vertex 13.5602 -3.48166 0
      vertex 13.0169 -5.15374 0
    endloop
  endfacet
  facet normal 0 0 -1
    outer loop
      vertex 10.5157 -5.78104 0
      vertex 13.0169 -5.15374 0
      vertex 12.2683 -6.74455 0
    endloop
  endfacet
  facet normal 0 0 -1
    outer loop
      vertex 9.7082 -7.05342 0
      vertex 12.2683 -6.74455 0
      vertex 11.3262 -8.22899 0
    endloop
  endfacet
  facet normal 0 0 -1
    outer loop
      vertex 8.74762 -8.21457 0
      vertex 11.3262 -8.22899 0
      vertex 10.2056 -9.58366 0
    endloop
  endfacet
  facet normal 0 0 -1
    outer loop
      vertex 7.64909 -9.24616 0
      vertex 10.2056 -9.58366 0
      vertex 8.92394 -10.7872 0
    endloop
  endfacet
  facet normal 0 0 -1
    outer loop
      vertex 6.42992 -10.1319 0
      vertex 8.92394 -10.7872 0
      vertex 7.50157 -11.8206 0
    endloop
  endfacet
  facet normal 0 0 -1
    outer loop
      vertex 3.7082 -11.4127 0
      vertex 7.50157 -11.8206 0
      vertex 5.96091 -12.6676 0
    endloop
  endfacet
  facet normal 0 0 -1
    outer loop
      vertex 2.24858 -11.7874 0
      vertex 5.96091 -12.6676 0
      vertex 4.32624 -13.3148 0
    endloop
  endfacet
  facet normal 0 0 -1
    outer loop
      vertex 0.753486 -11.9763 0
      vertex 4.32624 -13.3148 0
      vertex 2.62334 -13.752 0
    endloop
  endfacet
  facet normal 0 0 -1
    outer loop
      vertex -0.753486 -11.9763 0
      vertex 2.62334 -13.752 0
      vertex 0.879067 -13.9724 0
    endloop
  endfacet
  facet normal 0 0 -1
    outer loop
      vertex -2.24858 -11.7874 0
      vertex 0.879067 -13.9724 0
      vertex -0.879067 -13.9724 0
    endloop
  endfacet
  facet normal 0 0 -1
    outer loop
      vertex -5.10935 -10.8579 0
      vertex -0.879067 -13.9724 0
      vertex -2.62334 -13.752 0
    endloop
  endfacet
  facet normal 0 0 -1
    outer loop
      vertex -7.64909 -9.24616 0
      vertex -2.62334 -13.752 0
      vertex -4.32624 -13.3148 0
    endloop
  endfacet
  facet normal 0 0 -1
    outer loop
      vertex -8.74762 -8.21457 0
      vertex -4.32624 -13.3148 0
      vertex -5.96091 -12.6676 0
    endloop
  endfacet
  facet normal 0 0 -1
    outer loop
      vertex -13.8896 -1.75466 0
      vertex -5.96091 -12.6676 0
      vertex -7.50157 -11.8206 0
    endloop
  endfacet
  facet normal 0 0 -1
    outer loop
      vertex -13.8896 -1.75466 0
      vertex -7.50157 -11.8206 0
      vertex -8.92394 -10.7872 0
    endloop
  endfacet
  facet normal 0 0 -1
    outer loop
      vertex -13.8896 -1.75466 0
      vertex -8.92394 -10.7872 0
      vertex -10.2056 -9.58366 0
    endloop
  endfacet
  facet normal 0 0 -1
    outer loop
      vertex -13.8896 -1.75466 0
      vertex -10.2056 -9.58366 0
      vertex -11.3262 -8.22899 0
    endloop
  endfacet
  facet normal 0 0 -1
    outer loop
      vertex -13.8896 -1.75466 0
      vertex -11.3262 -8.22899 0
      vertex -12.2683 -6.74455 0
    endloop
  endfacet
  facet normal 0 0 -1
    outer loop
      vertex -13.8896 -1.75466 0
      vertex -12.2683 -6.74455 0
      vertex -13.0169 -5.15374 0
    endloop
  endfacet
  facet normal 0 0 -1
    outer loop
      vertex -13.8896 -1.75466 0
      vertex -13.0169 -5.15374 0
      vertex -13.5602 -3.48166 0
    endloop
  endfacet
  facet normal 0 0 -1
    outer loop
      vertex -11.9054 -1.504 0
      vertex -13.8896 -1.75466 0
      vertex -12 0 0
    endloop
  endfacet
  facet normal 0 0 -1
    outer loop
      vertex -11.623 -2.98428 0
      vertex -13.8896 -1.75466 0
      vertex -11.9054 -1.504 0
    endloop
  endfacet
  facet normal 0 0 -1
    outer loop
      vertex -11.1573 -4.41749 0
      vertex -13.8896 -1.75466 0
      vertex -11.623 -2.98428 0
    endloop
  endfacet
  facet normal 0 0 -1
    outer loop
      vertex -10.5157 -5.78104 0
      vertex -13.8896 -1.75466 0
      vertex -11.1573 -4.41749 0
    endloop
  endfacet
  facet normal 0 0 -1
    outer loop
      vertex -9.7082 -7.05342 0
      vertex -13.8896 -1.75466 0
      vertex -10.5157 -5.78104 0
    endloop
  endfacet
  facet normal 0 0 -1
    outer loop
      vertex -7.64909 -9.24616 0
      vertex -4.32624 -13.3148 0
      vertex -8.74762 -8.21457 0
    endloop
  endfacet
  facet normal 0 0 -1
    outer loop
      vertex -13.8896 -1.75466 0
      vertex -9.7082 -7.05342 0
      vertex -5.96091 -12.6676 0
    endloop
  endfacet
  facet normal 0 0 -1
    outer loop
      vertex -9.7082 -7.05342 0
      vertex -8.74762 -8.21457 0
      vertex -5.96091 -12.6676 0
    endloop
  endfacet
  facet normal 0 0 -1
    outer loop
      vertex -6.42992 -10.1319 0
      vertex -2.62334 -13.752 0
      vertex -7.64909 -9.24616 0
    endloop
  endfacet
  facet normal 0 0 -1
    outer loop
      vertex -5.10935 -10.8579 0
      vertex -2.62334 -13.752 0
      vertex -6.42992 -10.1319 0
    endloop
  endfacet
  facet normal 0 0 -1
    outer loop
      vertex -3.7082 -11.4127 0
      vertex -0.879067 -13.9724 0
      vertex -5.10935 -10.8579 0
    endloop
  endfacet
  facet normal 0 0 -1
    outer loop
      vertex -2.24858 -11.7874 0
      vertex -0.879067 -13.9724 0
      vertex -3.7082 -11.4127 0
    endloop
  endfacet
  facet normal 0 0 -1
    outer loop
      vertex 5.10935 -10.8579 0
      vertex 7.50157 -11.8206 0
      vertex 3.7082 -11.4127 0
    endloop
  endfacet
  facet normal 0 0 -1
    outer loop
      vertex 6.42992 -10.1319 0
      vertex 7.50157 -11.8206 0
      vertex 5.10935 -10.8579 0
    endloop
  endfacet
  facet normal 0 0 -1
    outer loop
      vertex 3.7082 -11.4127 0
      vertex 5.96091 -12.6676 0
      vertex 2.24858 -11.7874 0
    endloop
  endfacet
  facet normal 0 0 -1
    outer loop
      vertex 2.24858 -11.7874 0
      vertex 4.32624 -13.3148 0
      vertex 0.753486 -11.9763 0
    endloop
  endfacet
  facet normal 0 0 -1
    outer loop
      vertex 0.753486 -11.9763 0
      vertex 2.62334 -13.752 0
      vertex -0.753486 -11.9763 0
    endloop
  endfacet
  facet normal 0 0 -1
    outer loop
      vertex -0.753486 -11.9763 0
      vertex 0.879067 -13.9724 0
      vertex -2.24858 -11.7874 0
    endloop
  endfacet
  facet normal 0 0 -1
    outer loop
      vertex 11.9054 1.504 0
      vertex 13.8896 1.75466 0
      vertex 12 0 0
    endloop
  endfacet
  facet normal 0 0 -1
    outer loop
      vertex 11.623 2.98428 0
      vertex 13.5602 3.48166 0
      vertex 11.9054 1.504 0
    endloop
  endfacet
  facet normal 0 0 -1
    outer loop
      vertex 12 0 0
      vertex 14 0 0
      vertex 11.9054 -1.504 0
    endloop
  endfacet
  facet normal 0 0 -1
    outer loop
      vertex 11.9054 -1.504 0
      vertex 13.8896 -1.75466 0
      vertex 11.623 -2.98428 0
    endloop
  endfacet
  facet normal 0 0 -1
    outer loop
      vertex 11.623 -2.98428 0
      vertex 13.5602 -3.48166 0
      vertex 11.1573 -4.41749 0
    endloop
  endfacet
  facet normal 0 0 -1
    outer loop
      vertex 11.1573 -4.41749 0
      vertex 13.0169 -5.15374 0
      vertex 10.5157 -5.78104 0
    endloop
  endfacet
  facet normal 0 0 -1
    outer loop
      vertex 10.5157 -5.78104 0
      vertex 12.2683 -6.74455 0
      vertex 9.7082 -7.05342 0
    endloop
  endfacet
  facet normal 0 0 -1
    outer loop
      vertex 9.7082 -7.05342 0
      vertex 11.3262 -8.22899 0
      vertex 8.74762 -8.21457 0
    endloop
  endfacet
  facet normal 0 0 -1
    outer loop
      vertex 8.74762 -8.21457 0
      vertex 10.2056 -9.58366 0
      vertex 7.64909 -9.24616 0
    endloop
  endfacet
  facet normal 0 0 -1
    outer loop
      vertex 7.64909 -9.24616 0
      vertex 8.92394 -10.7872 0
      vertex 6.42992 -10.1319 0
    endloop
  endfacet
  facet normal 0 0 -1
    outer loop
      vertex 0.753486 11.9763 0
      vertex 2.62334 13.752 0
      vertex 2.24858 11.7874 0
    endloop
  endfacet
  facet normal 0 0 -1
    outer loop
      vertex -0.753486 11.9763 0
      vertex 2.62334 13.752 0
      vertex 0.753486 11.9763 0
    endloop
  endfacet
  facet normal 0 0 -1
    outer loop
      vertex 2.24858 11.7874 0
      vertex 4.32624 13.3148 0
      vertex 3.7082 11.4127 0
    endloop
  endfacet
  facet normal 0 0 -1
    outer loop
      vertex 3.7082 11.4127 0
      vertex 5.96091 12.6676 0
      vertex 5.10935 10.8579 0
    endloop
  endfacet
  facet normal 0 0 -1
    outer loop
      vertex 5.10935 10.8579 0
      vertex 7.50157 11.8206 0
      vertex 6.42992 10.1319 0
    endloop
  endfacet
  facet normal 0 0 -1
    outer loop
      vertex 6.42992 10.1319 0
      vertex 8.92394 10.7872 0
      vertex 7.64909 9.24616 0
    endloop
  endfacet
  facet normal 0 0 -1
    outer loop
      vertex -7.64909 9.24616 0
      vertex -5.96091 12.6676 0
      vertex -6.42992 10.1319 0
    endloop
  endfacet
  facet normal 0 0 -1
    outer loop
      vertex -9.7082 7.05342 0
      vertex -7.50157 11.8206 0
      vertex -8.74762 8.21457 0
    endloop
  endfacet
  facet normal 0 0 -1
    outer loop
      vertex -10.5157 5.78104 0
      vertex -7.50157 11.8206 0
      vertex -9.7082 7.05342 0
    endloop
  endfacet
  facet normal 0 0 -1
    outer loop
      vertex -11.1573 4.41749 0
      vertex -8.92394 10.7872 0
      vertex -10.5157 5.78104 0
    endloop
  endfacet
  facet normal 0 0 -1
    outer loop
      vertex -11.623 2.98428 0
      vertex -13.8896 -1.75466 0
      vertex -11.1573 4.41749 0
    endloop
  endfacet
  facet normal 0 0 -1
    outer loop
      vertex -13.8896 -1.75466 0
      vertex -8.92394 10.7872 0
      vertex -11.1573 4.41749 0
    endloop
  endfacet
  facet normal 0 0 -1
    outer loop
      vertex -11.9054 1.504 0
      vertex -13.8896 -1.75466 0
      vertex -11.623 2.98428 0
    endloop
  endfacet
  facet normal 0 0 -1
    outer loop
      vertex 7.64909 9.24616 0
      vertex 10.2056 9.58366 0
      vertex 8.74762 8.21457 0
    endloop
  endfacet
  facet normal 0 0 -1
    outer loop
      vertex -12 0 0
      vertex -13.8896 -1.75466 0
      vertex -11.9054 1.504 0
    endloop
  endfacet
  facet normal 0 0 -1
    outer loop
      vertex -8.74762 8.21457 0
      vertex -5.96091 12.6676 0
      vertex -7.64909 9.24616 0
    endloop
  endfacet
  facet normal 0 0 -1
    outer loop
      vertex -6.42992 10.1319 0
      vertex -4.32624 13.3148 0
      vertex -5.10935 10.8579 0
    endloop
  endfacet
  facet normal 0 0 -1
    outer loop
      vertex -5.10935 10.8579 0
      vertex -2.62334 13.752 0
      vertex -3.7082 11.4127 0
    endloop
  endfacet
  facet normal 0 0 -1
    outer loop
      vertex -3.7082 11.4127 0
      vertex -0.879067 13.9724 0
      vertex -2.24858 11.7874 0
    endloop
  endfacet
  facet normal 0 0 -1
    outer loop
      vertex -2.24858 11.7874 0
      vertex 0.879067 13.9724 0
      vertex -0.753486 11.9763 0
    endloop
  endfacet
  facet normal 0 0 -1
    outer loop
      vertex 8.74762 8.21457 0
      vertex 11.3262 8.22899 0
      vertex 9.7082 7.05342 0
    endloop
  endfacet
  facet normal 0 0 -1
    outer loop
      vertex 9.7082 7.05342 0
      vertex 12.2683 6.74455 0
      vertex 10.5157 5.78104 0
    endloop
  endfacet
  facet normal 0 0 -1
    outer loop
      vertex 10.5157 5.78104 0
      vertex 13.0169 5.15374 0
      vertex 11.1573 4.41749 0
    endloop
  endfacet
  facet normal 0 0 -1
    outer loop
      vertex 11.1573 4.41749 0
      vertex 13.5602 3.48166 0
      vertex 11.623 2.98428 0
    endloop
  endfacet
  facet normal 0 1 0
    outer loop
      vertex 2 0 24
      vertex 2 0 20
      vertex -2 0 24
    endloop
  endfacet
  facet normal 0 1 0
    outer loop
      vertex -2 0 24
      vertex 2 0 20
      vertex -2 0 20
    endloop
  endfacet
  facet normal 0.998027 -0.0627908 0
    outer loop
      vertex -11.9054 1.504 0
      vertex -11.9054 1.504 3
      vertex -12 0 3
    endloop
  endfacet
  facet normal 0.998027 -0.0627908 0
    outer loop
      vertex -12 0 0
      vertex -11.9054 1.504 0
      vertex -12 0 3
    endloop
  endfacet
  facet normal 0.998027 0.0627908 0
    outer loop
      vertex -12 0 3
      vertex -11.9054 -1.504 3
      vertex -11.9054 -1.504 0
    endloop
  endfacet
  facet normal 0.998027 0.0627908 0
    outer loop
      vertex -12 0 0
      vertex -12 0 3
      vertex -11.9054 -1.504 0
    endloop
  endfacet
  facet normal 0.982287 -0.187381 0
    outer loop
      vertex -11.623 2.98428 0
      vertex -11.623 2.98428 3
      vertex -11.9054 1.504 3
    endloop
  endfacet
  facet normal 0.982287 -0.187381 0
    outer loop
      vertex -11.9054 1.504 0
      vertex -11.623 2.98428 0
      vertex -11.9054 1.504 3
    endloop
  endfacet
  facet normal 0.951057 -0.309017 0
    outer loop
      vertex -11.1573 4.41749 0
      vertex -11.1573 4.41749 3
      vertex -11.623 2.98428 3
    endloop
  endfacet
  facet normal 0.951057 -0.309017 0
    outer loop
      vertex -11.623 2.98428 0
      vertex -11.1573 4.41749 0
      vertex -11.623 2.98428 3
    endloop
  endfacet
  facet normal 0.904827 -0.42578 0
    outer loop
      vertex -10.5157 5.78104 0
      vertex -10.5157 5.78104 3
      vertex -11.1573 4.41749 3
    endloop
  endfacet
  facet normal 0.904827 -0.42578 0
    outer loop
      vertex -11.1573 4.41749 0
      vertex -10.5157 5.78104 0
      vertex -11.1573 4.41749 3
    endloop
  endfacet
  facet normal 0.844328 -0.535827 0
    outer loop
      vertex -9.7082 7.05342 0
      vertex -9.7082 7.05342 3
      vertex -10.5157 5.78104 3
    endloop
  endfacet
  facet normal 0.844328 -0.535827 0
    outer loop
      vertex -10.5157 5.78104 0
      vertex -9.7082 7.05342 0
      vertex -10.5157 5.78104 3
    endloop
  endfacet
  facet normal 0.770513 -0.637424 0
    outer loop
      vertex -8.74762 8.21457 0
      vertex -8.74762 8.21457 3
      vertex -9.7082 7.05342 3
    endloop
  endfacet
  facet normal 0.770513 -0.637424 0
    outer loop
      vertex -9.7082 7.05342 0
      vertex -8.74762 8.21457 0
      vertex -9.7082 7.05342 3
    endloop
  endfacet
  facet normal 0.684547 -0.728969 0
    outer loop
      vertex -7.64909 9.24616 0
      vertex -7.64909 9.24616 3
      vertex -8.74762 8.21457 3
    endloop
  endfacet
  facet normal 0.684547 -0.728969 0
    outer loop
      vertex -8.74762 8.21457 0
      vertex -7.64909 9.24616 0
      vertex -8.74762 8.21457 3
    endloop
  endfacet
  facet normal 0.587785 -0.809017 0
    outer loop
      vertex -6.42992 10.1319 0
      vertex -6.42992 10.1319 3
      vertex -7.64909 9.24616 3
    endloop
  endfacet
  facet normal 0.587785 -0.809017 0
    outer loop
      vertex -7.64909 9.24616 0
      vertex -6.42992 10.1319 0
      vertex -7.64909 9.24616 3
    endloop
  endfacet
  facet normal 0.481754 -0.876307 0
    outer loop
      vertex -5.10935 10.8579 0
      vertex -5.10935 10.8579 3
      vertex -6.42992 10.1319 3
    endloop
  endfacet
  facet normal 0.481754 -0.876307 0
    outer loop
      vertex -6.42992 10.1319 0
      vertex -5.10935 10.8579 0
      vertex -6.42992 10.1319 3
    endloop
  endfacet
  facet normal 0.368124 -0.929777 0
    outer loop
      vertex -3.7082 11.4127 0
      vertex -3.7082 11.4127 3
      vertex -5.10935 10.8579 3
    endloop
  endfacet
  facet normal 0.368124 -0.929777 0
    outer loop
      vertex -5.10935 10.8579 0
      vertex -3.7082 11.4127 0
      vertex -5.10935 10.8579 3
    endloop
  endfacet
  facet normal 0.24869 -0.968583 0
    outer loop
      vertex -2.24858 11.7874 0
      vertex -2.24858 11.7874 3
      vertex -3.7082 11.4127 3
    endloop
  endfacet
  facet normal 0.24869 -0.968583 0
    outer loop
      vertex -3.7082 11.4127 0
      vertex -2.24858 11.7874 0
      vertex -3.7082 11.4127 3
    endloop
  endfacet
  facet normal 0.125333 -0.992115 0
    outer loop
      vertex -0.753486 11.9763 0
      vertex -0.753486 11.9763 3
      vertex -2.24858 11.7874 3
    endloop
  endfacet
  facet normal 0.125333 -0.992115 0
    outer loop
      vertex -2.24858 11.7874 0
      vertex -0.753486 11.9763 0
      vertex -2.24858 11.7874 3
    endloop
  endfacet
  facet normal 0 -1 0
    outer loop
      vertex 0.753486 11.9763 0
      vertex 0.753486 11.9763 3
      vertex -0.753486 11.9763 3
    endloop
  endfacet
  facet normal 0 -1 0
    outer loop
      vertex -0.753486 11.9763 0
      vertex 0.753486 11.9763 0
      vertex -0.753486 11.9763 3
    endloop
  endfacet
  facet normal -0.125333 -0.992115 0
    outer loop
      vertex 2.24858 11.7874 0
      vertex 2.24858 11.7874 3
      vertex 0.753486 11.9763 3
    endloop
  endfacet
  facet normal -0.125333 -0.992115 0
    outer loop
      vertex 0.753486 11.9763 0
      vertex 2.24858 11.7874 0
      vertex 0.753486 11.9763 3
    endloop
  endfacet
  facet normal -0.24869 -0.968583 0
    outer loop
      vertex 3.7082 11.4127 0
      vertex 3.7082 11.4127 3
      vertex 2.24858 11.7874 3
    endloop
  endfacet
  facet normal -0.24869 -0.968583 0
    outer loop
      vertex 2.24858 11.7874 0
      vertex 3.7082 11.4127 0
      vertex 2.24858 11.7874 3
    endloop
  endfacet
  facet normal -0.368124 -0.929777 0
    outer loop
      vertex 5.10935 10.8579 0
      vertex 5.10935 10.8579 3
      vertex 3.7082 11.4127 3
    endloop
  endfacet
  facet normal -0.368124 -0.929777 0
    outer loop
      vertex 3.7082 11.4127 0
      vertex 5.10935 10.8579 0
      vertex 3.7082 11.4127 3
    endloop
  endfacet
  facet normal -0.481754 -0.876307 0
    outer loop
      vertex 6.42992 10.1319 0
      vertex 6.42992 10.1319 3
      vertex 5.10935 10.8579 3
    endloop
  endfacet
  facet normal -0.481754 -0.876307 0
    outer loop
      vertex 5.10935 10.8579 0
      vertex 6.42992 10.1319 0
      vertex 5.10935 10.8579 3
    endloop
  endfacet
  facet normal -0.587785 -0.809017 0
    outer loop
      vertex 7.64909 9.24616 0
      vertex 7.64909 9.24616 3
      vertex 6.42992 10.1319 3
    endloop
  endfacet
  facet normal -0.587785 -0.809017 0
    outer loop
      vertex 6.42992 10.1319 0
      vertex 7.64909 9.24616 0
      vertex 6.42992 10.1319 3
    endloop
  endfacet
  facet normal -0.684547 -0.728969 0
    outer loop
      vertex 8.74762 8.21457 0
      vertex 8.74762 8.21457 3
      vertex 7.64909 9.24616 3
    endloop
  endfacet
  facet normal -0.684547 -0.728969 0
    outer loop
      vertex 7.64909 9.24616 0
      vertex 8.74762 8.21457 0
      vertex 7.64909 9.24616 3
    endloop
  endfacet
  facet normal -0.770513 -0.637424 0
    outer loop
      vertex 9.7082 7.05342 3
      vertex 8.74762 8.21457 3
      vertex 9.7082 7.05342 0
    endloop
  endfacet
  facet normal -0.770513 -0.637424 0
    outer loop
      vertex 9.7082 7.05342 0
      vertex 8.74762 8.21457 3
      vertex 8.74762 8.21457 0
    endloop
  endfacet
  facet normal -0.844328 -0.535827 0
    outer loop
      vertex 10.5157 5.78104 3
      vertex 9.7082 7.05342 3
      vertex 10.5157 5.78104 0
    endloop
  endfacet
  facet normal -0.844328 -0.535827 0
    outer loop
      vertex 10.5157 5.78104 0
      vertex 9.7082 7.05342 3
      vertex 9.7082 7.05342 0
    endloop
  endfacet
  facet normal -0.904827 -0.42578 0
    outer loop
      vertex 11.1573 4.41749 3
      vertex 10.5157 5.78104 3
      vertex 11.1573 4.41749 0
    endloop
  endfacet
  facet normal -0.904827 -0.42578 0
    outer loop
      vertex 11.1573 4.41749 0
      vertex 10.5157 5.78104 3
      vertex 10.5157 5.78104 0
    endloop
  endfacet
  facet normal -0.951057 -0.309017 0
    outer loop
      vertex 11.623 2.98428 3
      vertex 11.1573 4.41749 3
      vertex 11.623 2.98428 0
    endloop
  endfacet
  facet normal -0.951057 -0.309017 0
    outer loop
      vertex 11.623 2.98428 0
      vertex 11.1573 4.41749 3
      vertex 11.1573 4.41749 0
    endloop
  endfacet
  facet normal -0.982287 -0.187381 0
    outer loop
      vertex 11.9054 1.504 3
      vertex 11.623 2.98428 3
      vertex 11.9054 1.504 0
    endloop
  endfacet
  facet normal -0.982287 -0.187381 0
    outer loop
      vertex 11.9054 1.504 0
      vertex 11.623 2.98428 3
      vertex 11.623 2.98428 0
    endloop
  endfacet
  facet normal -0.998027 -0.0627908 0
    outer loop
      vertex 12 0 3
      vertex 11.9054 1.504 3
      vertex 12 0 0
    endloop
  endfacet
  facet normal -0.998027 -0.0627908 0
    outer loop
      vertex 12 0 0
      vertex 11.9054 1.504 3
      vertex 11.9054 1.504 0
    endloop
  endfacet
  facet normal -0.998027 0.0627908 0
    outer loop
      vertex 12 0 3
      vertex 12 0 0
      vertex 11.9054 -1.504 3
    endloop
  endfacet
  facet normal -0.998027 0.0627908 0
    outer loop
      vertex 11.9054 -1.504 3
      vertex 12 0 0
      vertex 11.9054 -1.504 0
    endloop
  endfacet
  facet normal -0.982287 0.187381 0
    outer loop
      vertex 11.9054 -1.504 3
      vertex 11.9054 -1.504 0
      vertex 11.623 -2.98428 3
    endloop
  endfacet
  facet normal -0.982287 0.187381 0
    outer loop
      vertex 11.623 -2.98428 3
      vertex 11.9054 -1.504 0
      vertex 11.623 -2.98428 0
    endloop
  endfacet
  facet normal -0.951057 0.309017 0
    outer loop
      vertex 11.623 -2.98428 3
      vertex 11.623 -2.98428 0
      vertex 11.1573 -4.41749 3
    endloop
  endfacet
  facet normal -0.951057 0.309017 0
    outer loop
      vertex 11.1573 -4.41749 3
      vertex 11.623 -2.98428 0
      vertex 11.1573 -4.41749 0
    endloop
  endfacet
  facet normal -0.904827 0.42578 0
    outer loop
      vertex 11.1573 -4.41749 3
      vertex 11.1573 -4.41749 0
      vertex 10.5157 -5.78104 3
    endloop
  endfacet
  facet normal -0.904827 0.42578 0
    outer loop
      vertex 10.5157 -5.78104 3
      vertex 11.1573 -4.41749 0
      vertex 10.5157 -5.78104 0
    endloop
  endfacet
  facet normal -0.844328 0.535827 0
    outer loop
      vertex 10.5157 -5.78104 3
      vertex 10.5157 -5.78104 0
      vertex 9.7082 -7.05342 3
    endloop
  endfacet
  facet normal -0.844328 0.535827 0
    outer loop
      vertex 9.7082 -7.05342 3
      vertex 10.5157 -5.78104 0
      vertex 9.7082 -7.05342 0
    endloop
  endfacet
  facet normal -0.770513 0.637424 0
    outer loop
      vertex 9.7082 -7.05342 3
      vertex 9.7082 -7.05342 0
      vertex 8.74762 -8.21457 3
    endloop
  endfacet
  facet normal -0.770513 0.637424 0
    outer loop
      vertex 8.74762 -8.21457 3
      vertex 9.7082 -7.05342 0
      vertex 8.74762 -8.21457 0
    endloop
  endfacet
  facet normal -0.684547 0.728969 0
    outer loop
      vertex 8.74762 -8.21457 3
      vertex 8.74762 -8.21457 0
      vertex 7.64909 -9.24616 3
    endloop
  endfacet
  facet normal -0.684547 0.728969 0
    outer loop
      vertex 7.64909 -9.24616 3
      vertex 8.74762 -8.21457 0
      vertex 7.64909 -9.24616 0
    endloop
  endfacet
  facet normal -0.587785 0.809017 0
    outer loop
      vertex 7.64909 -9.24616 3
      vertex 7.64909 -9.24616 0
      vertex 6.42992 -10.1319 3
    endloop
  endfacet
  facet normal -0.587785 0.809017 0
    outer loop
      vertex 6.42992 -10.1319 3
      vertex 7.64909 -9.24616 0
      vertex 6.42992 -10.1319 0
    endloop
  endfacet
  facet normal -0.481754 0.876307 0
    outer loop
      vertex 6.42992 -10.1319 3
      vertex 6.42992 -10.1319 0
      vertex 5.10935 -10.8579 3
    endloop
  endfacet
  facet normal -0.481754 0.876307 0
    outer loop
      vertex 5.10935 -10.8579 3
      vertex 6.42992 -10.1319 0
      vertex 5.10935 -10.8579 0
    endloop
  endfacet
  facet normal -0.368124 0.929777 0
    outer loop
      vertex 5.10935 -10.8579 3
      vertex 5.10935 -10.8579 0
      vertex 3.7082 -11.4127 3
    endloop
  endfacet
  facet normal -0.368124 0.929777 0
    outer loop
      vertex 3.7082 -11.4127 3
      vertex 5.10935 -10.8579 0
      vertex 3.7082 -11.4127 0
    endloop
  endfacet
  facet normal -0.24869 0.968583 0
    outer loop
      vertex 3.7082 -11.4127 3
      vertex 3.7082 -11.4127 0
      vertex 2.24858 -11.7874 3
    endloop
  endfacet
  facet normal -0.24869 0.968583 0
    outer loop
      vertex 2.24858 -11.7874 3
      vertex 3.7082 -11.4127 0
      vertex 2.24858 -11.7874 0
    endloop
  endfacet
  facet normal -0.125333 0.992115 0
    outer loop
      vertex 2.24858 -11.7874 3
      vertex 2.24858 -11.7874 0
      vertex 0.753486 -11.9763 3
    endloop
  endfacet
  facet normal -0.125333 0.992115 0
    outer loop
      vertex 0.753486 -11.9763 3
      vertex 2.24858 -11.7874 0
      vertex 0.753486 -11.9763 0
    endloop
  endfacet
  facet normal 0 1 0
    outer loop
      vertex 0.753486 -11.9763 3
      vertex 0.753486 -11.9763 0
      vertex -0.753486 -11.9763 3
    endloop
  endfacet
  facet normal 0 1 0
    outer loop
      vertex -0.753486 -11.9763 3
      vertex 0.753486 -11.9763 0
      vertex -0.753486 -11.9763 0
    endloop
  endfacet
  facet normal 0.125333 0.992115 0
    outer loop
      vertex -0.753486 -11.9763 3
      vertex -0.753486 -11.9763 0
      vertex -2.24858 -11.7874 3
    endloop
  endfacet
  facet normal 0.125333 0.992115 0
    outer loop
      vertex -2.24858 -11.7874 3
      vertex -0.753486 -11.9763 0
      vertex -2.24858 -11.7874 0
    endloop
  endfacet
  facet normal 0.24869 0.968583 0
    outer loop
      vertex -2.24858 -11.7874 3
      vertex -2.24858 -11.7874 0
      vertex -3.7082 -11.4127 3
    endloop
  endfacet
  facet normal 0.24869 0.968583 0
    outer loop
      vertex -3.7082 -11.4127 3
      vertex -2.24858 -11.7874 0
      vertex -3.7082 -11.4127 0
    endloop
  endfacet
  facet normal 0.368124 0.929777 0
    outer loop
      vertex -3.7082 -11.4127 3
      vertex -3.7082 -11.4127 0
      vertex -5.10935 -10.8579 3
    endloop
  endfacet
  facet normal 0.368124 0.929777 0
    outer loop
      vertex -5.10935 -10.8579 3
      vertex -3.7082 -11.4127 0
      vertex -5.10935 -10.8579 0
    endloop
  endfacet
  facet normal 0.481754 0.876307 0
    outer loop
      vertex -5.10935 -10.8579 3
      vertex -5.10935 -10.8579 0
      vertex -6.42992 -10.1319 3
    endloop
  endfacet
  facet normal 0.481754 0.876307 0
    outer loop
      vertex -6.42992 -10.1319 3
      vertex -5.10935 -10.8579 0
      vertex -6.42992 -10.1319 0
    endloop
  endfacet
  facet normal 0.587785 0.809017 0
    outer loop
      vertex -6.42992 -10.1319 3
      vertex -6.42992 -10.1319 0
      vertex -7.64909 -9.24616 3
    endloop
  endfacet
  facet normal 0.587785 0.809017 0
    outer loop
      vertex -7.64909 -9.24616 3
      vertex -6.42992 -10.1319 0
      vertex -7.64909 -9.24616 0
    endloop
  endfacet
  facet normal 0.684547 0.728969 0
    outer loop
      vertex -7.64909 -9.24616 3
      vertex -7.64909 -9.24616 0
      vertex -8.74762 -8.21457 3
    endloop
  endfacet
  facet normal 0.684547 0.728969 0
    outer loop
      vertex -8.74762 -8.21457 3
      vertex -7.64909 -9.24616 0
      vertex -8.74762 -8.21457 0
    endloop
  endfacet
  facet normal 0.770513 0.637424 0
    outer loop
      vertex -9.7082 -7.05342 3
      vertex -8.74762 -8.21457 3
      vertex -8.74762 -8.21457 0
    endloop
  endfacet
  facet normal 0.770513 0.637424 0
    outer loop
      vertex -9.7082 -7.05342 0
      vertex -9.7082 -7.05342 3
      vertex -8.74762 -8.21457 0
    endloop
  endfacet
  facet normal 0.844328 0.535827 0
    outer loop
      vertex -10.5157 -5.78104 3
      vertex -9.7082 -7.05342 3
      vertex -9.7082 -7.05342 0
    endloop
  endfacet
  facet normal 0.844328 0.535827 0
    outer loop
      vertex -10.5157 -5.78104 0
      vertex -10.5157 -5.78104 3
      vertex -9.7082 -7.05342 0
    endloop
  endfacet
  facet normal 0.904827 0.42578 0
    outer loop
      vertex -11.1573 -4.41749 3
      vertex -10.5157 -5.78104 3
      vertex -10.5157 -5.78104 0
    endloop
  endfacet
  facet normal 0.904827 0.42578 0
    outer loop
      vertex -11.1573 -4.41749 0
      vertex -11.1573 -4.41749 3
      vertex -10.5157 -5.78104 0
    endloop
  endfacet
  facet normal 0.951057 0.309017 0
    outer loop
      vertex -11.623 -2.98428 3
      vertex -11.1573 -4.41749 3
      vertex -11.1573 -4.41749 0
    endloop
  endfacet
  facet normal 0.951057 0.309017 0
    outer loop
      vertex -11.623 -2.98428 0
      vertex -11.623 -2.98428 3
      vertex -11.1573 -4.41749 0
    endloop
  endfacet
  facet normal 0.982287 0.187381 0
    outer loop
      vertex -11.9054 -1.504 3
      vertex -11.623 -2.98428 3
      vertex -11.623 -2.98428 0
    endloop
  endfacet
  facet normal 0.982287 0.187381 0
    outer loop
      vertex -11.9054 -1.504 0
      vertex -11.9054 -1.504 3
      vertex -11.623 -2.98428 0
    endloop
  endfacet
  facet normal 0 0 -1
    outer loop
      vertex -11.623 2.98428 3
      vertex -11.1573 4.41749 3
      vertex -11.9054 1.504 3
    endloop
  endfacet
  facet normal 0 0 -1
    outer loop
      vertex -11.9054 1.504 3
      vertex -11.1573 4.41749 3
      vertex -10.5157 5.78104 3
    endloop
  endfacet
  facet normal 0 0 -1
    outer loop
      vertex -11.9054 1.504 3
      vertex -10.5157 5.78104 3
      vertex -9.7082 7.05342 3
    endloop
  endfacet
  facet normal 0 0 -1
    outer loop
      vertex -11.9054 1.504 3
      vertex -9.7082 7.05342 3
      vertex -8.74762 8.21457 3
    endloop
  endfacet
  facet normal 0 0 -1
    outer loop
      vertex -11.9054 1.504 3
      vertex -8.74762 8.21457 3
      vertex -7.64909 9.24616 3
    endloop
  endfacet
  facet normal 0 0 -1
    outer loop
      vertex -11.9054 1.504 3
      vertex -7.64909 9.24616 3
      vertex -6.42992 10.1319 3
    endloop
  endfacet
  facet normal 0 0 -1
    outer loop
      vertex -11.9054 1.504 3
      vertex -6.42992 10.1319 3
      vertex -5.10935 10.8579 3
    endloop
  endfacet
  facet normal 0 0 -1
    outer loop
      vertex -11.9054 1.504 3
      vertex -5.10935 10.8579 3
      vertex -3.7082 11.4127 3
    endloop
  endfacet
  facet normal 0 0 -1
    outer loop
      vertex -11.9054 1.504 3
      vertex -3.7082 11.4127 3
      vertex -2.24858 11.7874 3
    endloop
  endfacet
  facet normal 0 0 -1
    outer loop
      vertex -11.9054 1.504 3
      vertex -2.24858 11.7874 3
      vertex -0.753486 11.9763 3
    endloop
  endfacet
  facet normal 0 0 -1
    outer loop
      vertex -11.9054 1.504 3
      vertex -0.753486 11.9763 3
      vertex 0.753486 11.9763 3
    endloop
  endfacet
  facet normal 0 0 -1
    outer loop
      vertex -11.9054 1.504 3
      vertex 0.753486 11.9763 3
      vertex 2.24858 11.7874 3
    endloop
  endfacet
  facet normal 0 0 -1
    outer loop
      vertex -11.9054 1.504 3
      vertex 2.24858 11.7874 3
      vertex 3.7082 11.4127 3
    endloop
  endfacet
  facet normal 0 0 -1
    outer loop
      vertex -11.9054 1.504 3
      vertex 3.7082 11.4127 3
      vertex 5.10935 10.8579 3
    endloop
  endfacet
  facet normal 0 0 -1
    outer loop
      vertex -11.9054 1.504 3
      vertex 5.10935 10.8579 3
      vertex 6.42992 10.1319 3
    endloop
  endfacet
  facet normal 0 0 -1
    outer loop
      vertex -11.9054 1.504 3
      vertex 6.42992 10.1319 3
      vertex 7.64909 9.24616 3
    endloop
  endfacet
  facet normal 0 0 -1
    outer loop
      vertex -11.9054 1.504 3
      vertex 7.64909 9.24616 3
      vertex 8.74762 8.21457 3
    endloop
  endfacet
  facet normal 0 0 -1
    outer loop
      vertex -11.9054 1.504 3
      vertex 8.74762 8.21457 3
      vertex 9.7082 7.05342 3
    endloop
  endfacet
  facet normal 0 0 -1
    outer loop
      vertex -11.9054 1.504 3
      vertex 9.7082 7.05342 3
      vertex 10.5157 5.78104 3
    endloop
  endfacet
  facet normal 0 0 -1
    outer loop
      vertex -11.9054 1.504 3
      vertex 10.5157 5.78104 3
      vertex 11.1573 4.41749 3
    endloop
  endfacet
  facet normal 0 0 -1
    outer loop
      vertex -11.9054 1.504 3
      vertex 11.1573 4.41749 3
      vertex 11.623 2.98428 3
    endloop
  endfacet
  facet normal 0 0 -1
    outer loop
      vertex -11.9054 1.504 3
      vertex 11.623 2.98428 3
      vertex 11.9054 1.504 3
    endloop
  endfacet
  facet normal 0 0 -1
    outer loop
      vertex -11.9054 1.504 3
      vertex 11.9054 1.504 3
      vertex 12 0 3
    endloop
  endfacet
  facet normal 0 0 -1
    outer loop
      vertex -11.9054 1.504 3
      vertex 12 0 3
      vertex 11.9054 -1.504 3
    endloop
  endfacet
  facet normal 0 0 -1
    outer loop
      vertex -11.9054 1.504 3
      vertex 11.9054 -1.504 3
      vertex 11.623 -2.98428 3
    endloop
  endfacet
  facet normal 0 0 -1
    outer loop
      vertex -11.9054 1.504 3
      vertex 11.623 -2.98428 3
      vertex 11.1573 -4.41749 3
    endloop
  endfacet
  facet normal 0 0 -1
    outer loop
      vertex -11.9054 1.504 3
      vertex 11.1573 -4.41749 3
      vertex 10.5157 -5.78104 3
    endloop
  endfacet
  facet normal 0 0 -1
    outer loop
      vertex -11.9054 1.504 3
      vertex 10.5157 -5.78104 3
      vertex 9.7082 -7.05342 3
    endloop
  endfacet
  facet normal 0 0 -1
    outer loop
      vertex -11.9054 1.504 3
      vertex 9.7082 -7.05342 3
      vertex 8.74762 -8.21457 3
    endloop
  endfacet
  facet normal 0 0 -1
    outer loop
      vertex -11.9054 1.504 3
      vertex 8.74762 -8.21457 3
      vertex 7.64909 -9.24616 3
    endloop
  endfacet
  facet normal 0 0 -1
    outer loop
      vertex -11.9054 1.504 3
      vertex 7.64909 -9.24616 3
      vertex 6.42992 -10.1319 3
    endloop
  endfacet
  facet normal 0 0 -1
    outer loop
      vertex -11.9054 1.504 3
      vertex 6.42992 -10.1319 3
      vertex 5.10935 -10.8579 3
    endloop
  endfacet
  facet normal 0 0 -1
    outer loop
      vertex -11.9054 1.504 3
      vertex 5.10935 -10.8579 3
      vertex 3.7082 -11.4127 3
    endloop
  endfacet
  facet normal 0 0 -1
    outer loop
      vertex -11.9054 1.504 3
      vertex 3.7082 -11.4127 3
      vertex 2.24858 -11.7874 3
    endloop
  endfacet
  facet normal 0 0 -1
    outer loop
      vertex -11.9054 1.504 3
      vertex 2.24858 -11.7874 3
      vertex 0.753486 -11.9763 3
    endloop
  endfacet
  facet normal 0 0 -1
    outer loop
      vertex -11.9054 1.504 3
      vertex 0.753486 -11.9763 3
      vertex -0.753486 -11.9763 3
    endloop
  endfacet
  facet normal 0 0 -1
    outer loop
      vertex -11.9054 1.504 3
      vertex -0.753486 -11.9763 3
      vertex -2.24858 -11.7874 3
    endloop
  endfacet
  facet normal 0 0 -1
    outer loop
      vertex -11.9054 1.504 3
      vertex -2.24858 -11.7874 3
      vertex -3.7082 -11.4127 3
    endloop
  endfacet
  facet normal 0 0 -1
    outer loop
      vertex -11.9054 1.504 3
      vertex -3.7082 -11.4127 3
      vertex -5.10935 -10.8579 3
    endloop
  endfacet
  facet normal 0 0 -1
    outer loop
      vertex -11.9054 1.504 3
      vertex -5.10935 -10.8579 3
      vertex -6.42992 -10.1319 3
    endloop
  endfacet
  facet normal 0 0 -1
    outer loop
      vertex -11.9054 1.504 3
      vertex -6.42992 -10.1319 3
      vertex -7.64909 -9.24616 3
    endloop
  endfacet
  facet normal 0 0 -1
    outer loop
      vertex -11.9054 1.504 3
      vertex -7.64909 -9.24616 3
      vertex -8.74762 -8.21457 3
    endloop
  endfacet
  facet normal 0 0 -1
    outer loop
      vertex -11.9054 1.504 3
      vertex -8.74762 -8.21457 3
      vertex -9.7082 -7.05342 3
    endloop
  endfacet
  facet normal 0 0 -1
    outer loop
      vertex -11.9054 1.504 3
      vertex -9.7082 -7.05342 3
      vertex -10.5157 -5.78104 3
    endloop
  endfacet
  facet normal 0 0 -1
    outer loop
      vertex -11.9054 1.504 3
      vertex -10.5157 -5.78104 3
      vertex -11.1573 -4.41749 3
    endloop
  endfacet
  facet normal 0 0 -1
    outer loop
      vertex -11.9054 1.504 3
      vertex -11.1573 -4.41749 3
      vertex -11.623 -2.98428 3
    endloop
  endfacet
  facet normal 0 0 -1
    outer loop
      vertex -11.9054 1.504 3
      vertex -11.623 -2.98428 3
      vertex -11.9054 -1.504 3
    endloop
  endfacet
  facet normal 0 0 -1
    outer loop
      vertex -11.9054 1.504 3
      vertex -11.9054 -1.504 3
      vertex -12 0 3
    endloop
  endfacet
endsolid OpenSCAD_Model
